<svg width="24.000000" height="24.000000" viewBox="0 0 24 24" fill="none" xmlns="http://www.w3.org/2000/svg" xmlns:xlink="http://www.w3.org/1999/xlink">
	<path id="形状" d="M19.125 2.85938C19.125 2.38477 18.7402 2 18.2656 2L4.85938 2C4.38477 2 4 2.38477 4 2.85938L4 20.3906C4 20.8652 4.38477 21.25 4.85938 21.25L18.2656 21.25C18.7402 21.25 19.125 20.8652 19.125 20.3906L19.125 2.85938ZM10.1626 11.3739L11.9277 5.95465L11.9277 5.95459C12.021 5.66888 12.3276 5.51257 12.6133 5.60529L12.6226 5.60834C12.9023 5.70453 13.0542 6.00775 12.9624 6.29016L11.1973 11.7095C11.104 11.9952 10.7974 12.1515 10.5117 12.0588L10.5024 12.0557C10.2227 11.9595 10.0708 11.6563 10.1626 11.3739ZM13.7515 6.55499L13.7456 6.56195C13.5596 6.79181 13.5928 7.12793 13.8188 7.31708L13.8257 7.32275L15.5039 8.6817L13.8257 10.0406C13.5957 10.2267 13.5581 10.5625 13.7397 10.7944L13.7456 10.8015C13.9336 11.0337 14.2744 11.0695 14.5063 10.8815L16.6899 9.1134C16.8252 9.00403 16.8936 8.84296 16.8906 8.6817C16.8936 8.5235 16.8276 8.36554 16.6978 8.25635L16.6899 8.25L14.5063 6.48193C14.2769 6.29578 13.9404 6.32898 13.7515 6.55499ZM8.62646 6.47583C8.8584 6.29474 9.19385 6.33264 9.37939 6.56256C9.56592 6.79352 9.53223 7.13062 9.30615 7.32074L9.29932 7.32648L7.63184 8.68164L9.29932 10.0368L9.30615 10.0425C9.53223 10.2327 9.56592 10.5698 9.37939 10.8007C9.19189 11.033 8.85205 11.0693 8.61963 10.8819L6.43506 9.10675L6.42773 9.10028C6.2998 8.99243 6.2334 8.83759 6.23438 8.68164C6.2334 8.5257 6.2998 8.37085 6.42773 8.263L6.43506 8.25653L8.61816 6.4826L8.62646 6.47583ZM15.623 14.6543L7.50195 14.6543C7.12207 14.6543 6.81445 14.9621 6.81445 15.3418C6.81445 15.7177 7.11621 16.0231 7.49072 16.0292L7.50195 16.0293L15.623 16.0293C16.0029 16.0293 16.3105 15.7215 16.3105 15.3418C16.3105 14.9659 16.0088 14.6605 15.6343 14.6544L15.623 14.6543ZM7.50195 17.4043L12.1426 17.4043L12.1538 17.4044C12.5283 17.4105 12.8301 17.7159 12.8301 18.0918C12.8301 18.4715 12.5225 18.7793 12.1426 18.7793L7.50195 18.7793L7.49072 18.7792C7.11621 18.7731 6.81445 18.4677 6.81445 18.0918C6.81445 17.7121 7.12207 17.4043 7.50195 17.4043Z" clip-rule="evenodd" fill-rule="evenodd" fill="currentColor" fill-opacity="1.000000"/>
	<defs/>
</svg>
